# xmcd
# 
# Track frame offsets:
#     150
#     20512
#     41477
#     58710
#     75027
#     98832
#     125987
#     147035
#     166037
#     187497
#     209860
#     232015
#     250940
#     271455
#     288652
# 
# Disc length: 4140
# 
# Revision: 12
# Processed by: cddbd v1.5.2PL0 Copyright (c) Steve Scherf et al.
# Submitted via: fre:ac v1.1beta1pre3
# 
DISCID=e2102a0f
DTITLE=Laura Pausini - Le Cose Che Vivi
DYEAR=1996
DGENRE=Pop
TTITLE0=Le Cose Che Vivi
TTITLE1=Ascolta Il Tuo Cuore
TTITLE2=Incancellabile
TTITLE3=Seamisai
TTITLE4=Angeli Nel Blu
TTITLE5=Mi Dispiace
TTITLE6=Due Innamorati Come Noi
TTITLE7=Che Storia È
TTITLE8=16/5/74
TTITLE9=Un Giorno Senza Te
TTITLE10=La Voce
TTITLE11=Il Mondo Che Vorrei
TTITLE12=Tudo O Que Eu Vivo
TTITLE13=Inesquecível
TTITLE14=Apaixonados Como Nós
EXTD=
EXTT0=
EXTT1=
EXTT2=
EXTT3=
EXTT4=
EXTT5=
EXTT6=
EXTT7=
EXTT8=
EXTT9=
EXTT10=
EXTT11=
EXTT12=
EXTT13=
EXTT14=
PLAYORDER=
